HIERARCHY
ROOT hips
{
  OFFSET 0 10.074487846421558 1.314567655973056
  CHANNELS 6 Xposition Yposition Zposition Yrotation Xrotation Zrotation
  JOINT spine
  {
    OFFSET -7.042773748992335e-31 0.5690686926897363 0
    CHANNELS 3 Yrotation Xrotation Zrotation
    JOINT chest
    {
      OFFSET 0 1.2435964857087873 0
      CHANNELS 3 Yrotation Xrotation Zrotation
      JOINT upperChest
      {
        OFFSET 0 1.194994586872362 0
        CHANNELS 3 Yrotation Xrotation Zrotation
        JOINT neck
        {
          OFFSET 0 1.515103653293861 0
          CHANNELS 3 Yrotation Xrotation Zrotation
          JOINT head
          {
            OFFSET 0 0.8111851616465653 0
            CHANNELS 3 Yrotation Xrotation Zrotation
            JOINT leftEye
            {
              OFFSET 0.27141371691966987 0.7490044407698551 0.18219031050045686
              CHANNELS 3 Yrotation Xrotation Zrotation
              End Site
              {
                OFFSET 0.27141371691966987 0.7490044407698551 0.18219031050045686
              }
            }
            JOINT rightEye
            {
              OFFSET -0.2714136877644943 0.7490044019380786 0.18219040411850668
              CHANNELS 3 Yrotation Xrotation Zrotation
              End Site
              {
                OFFSET -0.2714136877644943 0.7490044019380786 0.18219040411850668
              }
            }
          }
        }
        JOINT leftShoulder
        {
          OFFSET 0.4137993136083964 1.1593397335613034 0
          CHANNELS 3 Yrotation Xrotation Zrotation
          JOINT leftUpperArm
          {
            OFFSET 1.0096991868951026 0 0
            CHANNELS 3 Yrotation Xrotation Zrotation
            JOINT leftLowerArm
            {
              OFFSET 2.418380967671622 0 0
              CHANNELS 3 Yrotation Xrotation Zrotation
              JOINT leftHand
              {
                OFFSET 2.361538296260114 0 0
                CHANNELS 3 Yrotation Xrotation Zrotation
                JOINT leftIndexProximal
                {
                  OFFSET 0.7243699271447109 0.08118285989887508 0.2022042461579805
                  CHANNELS 3 Yrotation Xrotation Zrotation
                  JOINT leftIndexIntermediate
                  {
                    OFFSET 0.36553107045252053 -0.010567764853200323 -0.014102670024158437
                    CHANNELS 3 Yrotation Xrotation Zrotation
                    JOINT leftIndexDistal
                    {
                      OFFSET 0.22505120770060527 -0.007821041598631284 -0.007511611613336286
                      CHANNELS 3 Yrotation Xrotation Zrotation
                      End Site
                      {
                        OFFSET 0.22505120770060527 -0.007821041598631284 -0.007511611613336286
                      }
                    }
                  }
                }
                JOINT leftLittleProximal
                {
                  OFFSET 0.6721063881632002 0.08118279568569564 -0.3209324945517917
                  CHANNELS 3 Yrotation Xrotation Zrotation
                  JOINT leftLittleIntermediate
                  {
                    OFFSET 0.34587329423120616 5.3042709780015684e-8 -5.929537746918179e-8
                    CHANNELS 3 Yrotation Xrotation Zrotation
                    JOINT leftLittleDistal
                    {
                      OFFSET 0.1992782500022232 0.0030983716482184676 0.0038310952896712935
                      CHANNELS 3 Yrotation Xrotation Zrotation
                      End Site
                      {
                        OFFSET 0.1992782500022232 0.0030983716482184676 0.0038310952896712935
                      }
                    }
                  }
                }
                JOINT leftMiddleProximal
                {
                  OFFSET 0.7301229696860206 0.08118412848995638 0.022516891543707507
                  CHANNELS 3 Yrotation Xrotation Zrotation
                  JOINT leftMiddleIntermediate
                  {
                    OFFSET 0.4076277831942017 -0.000001240188283180288 -1.6203245635504349e-7
                    CHANNELS 3 Yrotation Xrotation Zrotation
                    JOINT leftMiddleDistal
                    {
                      OFFSET 0.2514739255593972 0.0000013850839168938478 -1.8644847207816007e-8
                      CHANNELS 3 Yrotation Xrotation Zrotation
                      End Site
                      {
                        OFFSET 0.2514739255593972 0.0000013850839168938478 -1.8644847207816007e-8
                      }
                    }
                  }
                }
                JOINT leftRingProximal
                {
                  OFFSET 0.7218060861525873 0.08118280646416753 -0.1494689818508163
                  CHANNELS 3 Yrotation Xrotation Zrotation
                  JOINT leftRingIntermediate
                  {
                    OFFSET 0.3781267508900358 0.000001373626195677602 -1.4143108284514483e-7
                    CHANNELS 3 Yrotation Xrotation Zrotation
                    JOINT leftRingDistal
                    {
                      OFFSET 0.21814333268795483 -0.0027137626495670197 -0.004991775417842292
                      CHANNELS 3 Yrotation Xrotation Zrotation
                      End Site
                      {
                        OFFSET 0.21814333268795483 -0.0027137626495670197 -0.004991775417842292
                      }
                    }
                  }
                }
                JOINT leftThumbProximal
                {
                  OFFSET 0.10743676110519984 -0.16423092885053192 -0.07708859146227388
                  CHANNELS 3 Yrotation Xrotation Zrotation
                  JOINT leftThumbIntermediate
                  {
                    OFFSET 0.40350402100066307 -0.01735099334274981 0.315629965828783
                    CHANNELS 3 Yrotation Xrotation Zrotation
                    JOINT leftThumbDistal
                    {
                      OFFSET 0.2320014489535681 -0.01842351809041043 0.21271298411519196
                      CHANNELS 3 Yrotation Xrotation Zrotation
                      End Site
                      {
                        OFFSET 0.2320014489535681 -0.01842351809041043 0.21271298411519196
                      }
                    }
                  }
                }
              }
            }
          }
        }
        JOINT rightShoulder
        {
          OFFSET -0.41379931360839656 1.1593397335613034 0
          CHANNELS 3 Yrotation Xrotation Zrotation
          JOINT rightUpperArm
          {
            OFFSET -1.0096991868951024 0 0
            CHANNELS 3 Yrotation Xrotation Zrotation
            JOINT rightLowerArm
            {
              OFFSET -2.4183809676716232 0 0
              CHANNELS 3 Yrotation Xrotation Zrotation
              JOINT rightHand
              {
                OFFSET -2.3615382962601132 0 0
                CHANNELS 3 Yrotation Xrotation Zrotation
                JOINT rightIndexProximal
                {
                  OFFSET -0.7243699271447109 0.08118285989887508 0.2022042461579805
                  CHANNELS 3 Yrotation Xrotation Zrotation
                  JOINT rightIndexIntermediate
                  {
                    OFFSET -0.36553107045252053 -0.010567764853200323 -0.014102670024158437
                    CHANNELS 3 Yrotation Xrotation Zrotation
                    JOINT rightIndexDistal
                    {
                      OFFSET -0.22505120770060527 -0.007821041598631284 -0.007511611613336286
                      CHANNELS 3 Yrotation Xrotation Zrotation
                      End Site
                      {
                        OFFSET -0.22505120770060527 -0.007821041598631284 -0.007511611613336286
                      }
                    }
                  }
                }
                JOINT rightLittleProximal
                {
                  OFFSET -0.6721063881632002 0.08118279568569564 -0.3209324945517917
                  CHANNELS 3 Yrotation Xrotation Zrotation
                  JOINT rightLittleIntermediate
                  {
                    OFFSET -0.34587329423120616 5.3042709780015684e-8 -5.929537746918179e-8
                    CHANNELS 3 Yrotation Xrotation Zrotation
                    JOINT rightLittleDistal
                    {
                      OFFSET -0.1992782500022232 0.0030983716482184676 0.0038310952896712935
                      CHANNELS 3 Yrotation Xrotation Zrotation
                      End Site
                      {
                        OFFSET -0.1992782500022232 0.0030983716482184676 0.0038310952896712935
                      }
                    }
                  }
                }
                JOINT rightMiddleProximal
                {
                  OFFSET -0.7301229696860206 0.08118412848995638 0.022516891543707507
                  CHANNELS 3 Yrotation Xrotation Zrotation
                  JOINT rightMiddleIntermediate
                  {
                    OFFSET -0.4076277831942017 -0.000001240188283180288 -1.6203245635504349e-7
                    CHANNELS 3 Yrotation Xrotation Zrotation
                    JOINT rightMiddleDistal
                    {
                      OFFSET -0.2514739255593972 0.0000013850839168938478 -1.8644847207816007e-8
                      CHANNELS 3 Yrotation Xrotation Zrotation
                      End Site
                      {
                        OFFSET -0.2514739255593972 0.0000013850839168938478 -1.8644847207816007e-8
                      }
                    }
                  }
                }
                JOINT rightRingProximal
                {
                  OFFSET -0.7218060861525873 0.08118280646416753 -0.1494689818508163
                  CHANNELS 3 Yrotation Xrotation Zrotation
                  JOINT rightRingIntermediate
                  {
                    OFFSET -0.3781267508900358 0.000001373626195677602 -1.4143108284514483e-7
                    CHANNELS 3 Yrotation Xrotation Zrotation
                    JOINT rightRingDistal
                    {
                      OFFSET -0.21814333268795483 -0.0027137626495670197 -0.004991775417842292
                      CHANNELS 3 Yrotation Xrotation Zrotation
                      End Site
                      {
                        OFFSET -0.21814333268795483 -0.0027137626495670197 -0.004991775417842292
                      }
                    }
                  }
                }
                JOINT rightThumbProximal
                {
                  OFFSET -0.10743676110519984 -0.16423092885053192 -0.07708859146227388
                  CHANNELS 3 Yrotation Xrotation Zrotation
                  JOINT rightThumbIntermediate
                  {
                    OFFSET -0.40350402100066307 -0.01735099334274981 0.315629965828783
                    CHANNELS 3 Yrotation Xrotation Zrotation
                    JOINT rightThumbDistal
                    {
                      OFFSET -0.2320014489535681 -0.01842351809041043 0.21271298411519196
                      CHANNELS 3 Yrotation Xrotation Zrotation
                      End Site
                      {
                        OFFSET -0.2320014489535681 -0.01842351809041043 0.21271298411519196
                      }
                    }
                  }
                }
              }
            }
          }
        }
      }
    }
  }
  JOINT leftUpperLeg
  {
    OFFSET 0.8487163290887698 -0.43932186100277326 0
    CHANNELS 3 Yrotation Xrotation Zrotation
    JOINT leftLowerLeg
    {
      OFFSET 0 -3.882816707004296 0
      CHANNELS 3 Yrotation Xrotation Zrotation
      JOINT leftFoot
      {
        OFFSET 0 -4.570431027442807 0.004629272230691511
        CHANNELS 3 Yrotation Xrotation Zrotation
        JOINT leftToes
        {
          OFFSET 0 -0.698875637876343 1.214565366696912
          CHANNELS 3 Yrotation Xrotation Zrotation
          End Site
          {
            OFFSET 0 -0.698875637876343 1.214565366696912
          }
        }
      }
    }
  }
  JOINT rightUpperLeg
  {
    OFFSET -0.8487163290887698 -0.43932186100277326 0
    CHANNELS 3 Yrotation Xrotation Zrotation
    JOINT rightLowerLeg
    {
      OFFSET 0 -3.882816707004296 0
      CHANNELS 3 Yrotation Xrotation Zrotation
      JOINT rightFoot
      {
        OFFSET 0 -4.570431027442807 0.004629272230691511
        CHANNELS 3 Yrotation Xrotation Zrotation
        JOINT rightToes
        {
          OFFSET 0 -0.698875637876343 1.214565366696912
          CHANNELS 3 Yrotation Xrotation Zrotation
          End Site
          {
            OFFSET 0 -0.698875637876343 1.214565366696912
          }
        }
      }
    }
  }
}
MOTION
Frames: 4
Frame Time: 0.03333333333333333
-0.336255818605423 -0.2059976273053472 -0.29393404722213745 3.417136378455009 -0.9045198222743038 2.395067862976947 -9.277017344240575 6.1643589249199975 -7.936160859894665 -3.9042436233659896 13.887574314752097 2.8556471084 0 0 0 -3.982209859502347 -6.095152500751905 0.4003625979032631 -26.37153176769956 -11.777601163242672 11.498191187118756 0 0 0 0 0 0 -1.1433347186868745 2.0235055763924374 -6.704429230483003 -13.443086651633783 -2.7921845938289653 -55.38737623682898 -14.29034096340168 -1.5379620732163206 0.37829574805706306 8.505301041024438 -31.23600366935012 -9.44716078017081 -6.482502962981812 -2.1263592644109104 -82.51910087454698 4.896592761371794 3.5988195187198877 -72.61578371749599 2.2075097934495083 0.49971364712359523 -25.509102092215887 6.676022273985603 1.0575069397962042 -71.54512490710309 4.581296269915841 2.8222269471051775 -63.2539330034567 3.0872928421167987 1.0338766328326674 -37.023718923586685 7.472792802429314 6.6119114450893415 -83.05104737191866 5.049951248293342 6.0401168610406275 -100.22182101455299 3.218863593725939 1.1364733899632273 -38.88644693459569 7.602199873503943 -2.060243518302079 -85.1255080947728 5.068538602971531 5.930811234344707 -98.98044035337354 5.062751665890737 4.295456947502803 -80.6172178419649 -50.582406708668195 32.61591712217546 2.6795661054093944 35.241253793811865 31.323134851662157 -15.704822200236848 28.00735113459972 4.96974574753234 11.413788757914672 -4.23109731346871 3.4997785560535717 -0.6860325923664232 14.935321898954086 -12.344700118358817 70.50193850057467 13.050095249406047 -1.4088049693791211 -0.3303978532762808 0.659592409994138 2.037580548637091 0.4616835424156675 3.8917825305271534 11.526143858258193 20.69226115359435 -2.1051852876119246 0.6125626710696861 32.44441565724508 -0.3663981710804025 0.017158766137825802 5.3587010682777745 -18.479500677432018 -8.228597945579146 23.01451349520846 -2.9889104696820206 1.381249581735992 49.59778455132784 -3.1121170206151323 1.533482101115174 52.45467241017883 -7.015345771795917 1.9954442031469655 20.346675785542814 -2.9630276090787597 1.3511336532663543 49.018721478144236 -1.8765219265980317 0.4778436527014554 28.56987601800059 -6.984106252948682 2.296583004428202 25.29314541716727 -3.0628852398133057 1.4707795841365314 51.29205134188199 -2.515045500486622 0.9119617147489348 39.85636330889278 25.061342735718203 5.20178533518071 -0.6637302145007132 -42.1219150453145 23.61540488029814 -8.214879614228144 -38.64195012253393 5.261224208775609 -2.8506882096800052 10.061650728304024 -9.22968124014674 4.95018965936534 -6.369697916563167 15.875837286418793 -1.430579785783356 -0.02614944084132867 -5.357227578145667 -5.238711602835568 0.000004760260995815524 -0.8510598991932755 0.0000040119540163073975 -10.079589877101956 -9.82666146051795 -5.011188829182134 -6.767076068855435 23.251630100485773 -3.86305101822907 -2.910197805774342 -11.115178878596423 5.4860352675285675 2.8252073642606767e-7 -1.4267180352824025 0.000023469673697673635
-0.35950398445129395 -0.2053691559308355 -0.28886598348617554 3.4845805850888105 -0.9537010906947371 2.4581893614306938 -9.454773682547998 6.213497388728979 -7.939572502506483 -4.228274626012803 14.182868731808243 3.0451997994579245 0 0 0 -4.116069772079343 -6.158255902545946 0.3909373329708352 -26.535791890189255 -12.059859218711408 11.404061266005804 0 0 0 0 0 0 -1.2274517578154813 1.9972478274662615 -6.68994804717485 -13.627822010030847 -2.997116213550552 -55.48042397203589 -14.209281336356632 -1.5295554740809516 0.37506241687202735 8.560199728989584 -31.692902073586094 -9.539245162403498 -6.483626982333408 -2.127875330408338 -82.51103048714468 4.893551772783447 3.589165697001649 -72.50283178955529 2.2078728362270863 0.4998805128591644 -25.51351373577914 6.672174129165672 1.0450726217728379 -71.52518421086558 4.581381292166944 2.8224006873392407 -63.25599272864676 3.086368643877907 1.033167458446103 -37.010716831261945 7.472438069030354 6.613191227721477 -83.06550251415821 5.049991693657207 6.039996236203535 -100.22032069989945 3.218452409159458 1.136147397765853 -38.88053779497059 7.598294921762783 -2.0668041139954996 -85.09435493338853 5.0679869328368286 5.934305232973531 -99.02005006533122 5.0622410703072465 4.292368717588463 -80.58212294328322 -50.582406708668195 32.61591712217546 2.6795661054093944 35.26550714069873 31.338455569198988 -15.687112888601934 28.016753073585914 4.971075377317138 11.420555847523007 -4.232502446955321 3.552533427632531 -0.8480349462722688 14.310263702054755 -11.79921001694885 70.69110842163886 13.360819290580825 -1.4412710027055033 -0.34210776610908933 0.16089450824095894 1.9046959036244755 0.42110984665378853 3.9083533974679248 11.522919026990659 20.495819878539947 -2.0924937616987433 0.6045340245361086 32.2250922644263 -0.35171422798255003 0.015791842790626814 5.143469708152476 -18.47560005486174 -8.242656016898124 22.932642778921668 -2.9887760362959157 1.381070130412506 49.59449312003684 -3.112460457533848 1.5339377525922404 52.462813271644876 -7.014825626583345 1.9840206542736696 20.175768633343147 -2.9589293987586314 1.346448125922597 48.92772521564584 -1.8692793980745825 0.4739114091828667 28.449687304241372 -7.0048827970240195 2.3059312542447974 25.237700457913604 -3.062028389472029 1.469689703441582 51.27180680027762 -2.514217640952576 0.9112862943035712 39.8406799240246 25.061342735718203 5.20178533518071 -0.6637302145007132 -42.041554685890084 23.58248824142166 -8.206492686905385 -38.6315601341636 5.244806343954219 -2.8572982057661678 10.037037922661344 -9.005207072867847 5.050105413586702 -6.403035722220126 15.517524136699478 -1.397222706216061 -0.03285199741343748 -5.176644527952974 -5.448917098544303 0.000013876675217169516 -0.8543247176344229 1.3225781478727777e-7 -10.109760360899703 -9.750748626109713 -4.944408652870726 -6.798739605564131 23.30265553625471 -3.8539315545470965 -2.9505862570993884 -11.240726809665826 5.3299751484587805 0.00003440530246556172 -1.4072698477239727 0.0015779391309124128
-0.37345585227012634 -0.205079238938648 -0.28619980812072754 3.5090444987284557 -0.9419543327856614 2.491608982059013 -9.5390595196112 6.221049465896828 -7.920223350121265 -4.440720895948644 14.357023988102519 3.1574718413451133 0 0 0 -4.208969610625053 -6.16047958605301 0.4007357437414985 -26.628377175301523 -12.107602273086238 11.358984622951699 0 0 0 0 0 0 -1.277927009297416 1.9828479338953677 -6.675919215832968 -13.729492373547712 -3.052294142437711 -55.54853775064216 -14.25280141420222 -1.5340704552313829 0.376776936693584 8.639191393625469 -31.98607583783002 -9.582988447389942 -6.486402803449456 -2.1266484659527927 -82.48997820785765 4.893543809887192 3.5891545761316617 -72.50274892488075 2.208130462394975 0.5000059690002114 -25.5167292854159 6.671287865542758 1.0417103305431121 -71.52273938658918 4.581403566415663 2.8224517622715375 -63.25668236129323 3.0866880078418655 1.0334066606861254 -37.015208439619926 7.471867253362211 6.615265617153966 -83.08878052144792 5.049982588670241 6.0400417388079655 -100.22082466915727 3.2175471469094195 1.1354234689246918 -38.86761102544513 7.597365270550154 -2.0693639005984648 -85.08681682776023 5.06831957941706 5.932273037243528 -98.99688777836712 5.062177799317809 4.291997137675824 -80.57790592435956 -50.582406708668195 32.61591712217546 2.6795661054093944 35.27077262111996 31.342925914563683 -15.682415995859815 28.03328907448035 4.97303833228576 11.430483678549809 -4.25952046941103 3.5867246692855135 -0.9608204273832642 14.00621838315782 -11.579807319470008 70.81196233644167 13.373886760497342 -1.4426368327243628 -0.34260725058146735 -0.048463987617165916 1.711491600853714 0.38127772151143086 3.9211472756876864 11.515085829793579 20.494806250894317 -2.086222628323236 0.6005759244773426 32.11704193904837 -0.346661768583907 0.015346353023713764 5.069283980870867 -18.48031277885211 -8.23564934825595 22.967437929224864 -2.9899946090763345 1.3825109722662334 49.62203765356699 -3.1180573249924555 1.5412288300037813 52.59716144548322 -7.015333804895497 1.9842205571564764 20.17489309830691 -2.957051258855235 1.344293034033161 48.88594524722804 -1.865678830395908 0.4719564677397641 28.38989258963924 -7.002327347648153 2.3055849821178147 25.256766359419625 -3.0639798788390684 1.4721364644605102 51.31742786561958 -2.514958125294532 0.9118981005549339 39.85509291034284 25.061342735718203 5.20178533518071 -0.6637302145007132 -41.95592792452053 23.54822383049829 -8.198348483697279 -38.630612647660215 5.233937216057829 -2.8649754320370904 10.023074642850052 -8.91076240062553 5.103564142323201 -6.389646027051321 15.303568385214158 -1.36858961035389 -0.03722343572997756 -5.090310845622452 -5.53082193278719 0.00000252136286359884 -0.8556006643169648 -0.0000013543387036380864 -10.124865241289372 -9.752042863160405 -4.8905267722478145 -6.805327785785317 23.33348289249065 -3.8451735018723454 -2.9712397963590114 -11.310357331136268 5.2273280236583455 0.00008981670270689031 -1.3931399435555107 0.007567413282891065
-0.3861510157585144 -0.2047769241803472 -0.28440046310424805 3.5328011230443153 -0.9282987524382968 2.525492813395339 -9.604081127761985 6.227093524622297 -7.893397736059863 -4.653833499343668 14.518220357592737 3.2615014346708056 0 0 0 -4.304799260236561 -6.13615052977334 0.4178302264074822 -26.699467395416054 -12.053332437570377 11.305048439908427 0 0 0 0 0 0 -1.321458326074257 1.9705289739736265 -6.664133882347925 -13.854496449223301 -3.1336857754118213 -55.604375133201174 -14.22018556015329 -1.5306697258337902 0.3754941543802732 8.71912538305248 -32.26942110189669 -9.623424628902763 -6.486404042801177 -2.128825168514935 -82.49047363050438 4.8937688319216885 3.5898539080270004 -72.51085006278379 2.2086139340862334 0.5002450347286227 -25.52273266324424 6.67095673636533 1.0404010659833645 -71.522047584955 4.581406122653771 2.8224498389476866 -63.25667625431163 3.0875731964030195 1.0340828527472263 -37.02762030819288 7.472309192722396 6.613667816526376 -83.0706697499704 5.049936886742157 6.040195417443644 -100.22263552389009 3.2165722068900693 1.1346392306751107 -38.85361307892608 7.596697344683096 -2.0711900337415274 -85.08144868874518 5.068782241413473 5.929239993681854 -98.9626414802511 5.062150276928192 4.291811347787326 -80.5759947524997 -50.582406708668195 32.61591712217546 2.6795661054093944 35.270112879709835 31.344037536101798 -15.681738808236542 28.03901419775851 4.971851388721813 11.43536459779432 -4.306534467730575 3.622701725908548 -1.0728193637777943 13.703097013583138 -11.295254861953737 70.9202704130969 13.674039363590714 -1.4739175979977726 -0.3541818711622586 -0.3884583777198805 1.5510624398537949 0.3375428647349855 3.942150163623672 11.503700636139738 20.49165157652233 -2.081284604377642 0.5974833873124776 32.0319478005908 -0.34049060472455217 0.01481286620577337 4.97900998938017 -18.49904915637952 -8.214811237130347 23.068686298452473 -2.991145450971106 1.3838716436082494 49.64794007771057 -3.1231933674961145 1.5479645633171115 52.72075012625283 -7.015981303806618 1.9863359839093455 20.202217539348805 -2.9556486539943827 1.342692408763989 48.85497540189565 -1.8647746609255422 0.47146691868437274 28.374969089994867 -6.981288797923218 2.2965654879991324 25.320657480696937 -3.065598158395472 1.4741645270164192 51.35511123269176 -2.516647967679929 0.913311061726257 39.88685897328472 25.061342735718203 5.20178533518071 -0.6637302145007132 -41.88429923840192 23.519353874145025 -8.191709414066842 -38.62323794597896 5.220414406983197 -2.86975138182066 10.010438767656694 -8.831764528938091 5.150668977512303 -6.4096620251758605 15.102646177980876 -1.3504330028015152 -0.04211189526703339 -4.9799954929094365 -5.641159968796224 -0.000009786458821937083 -0.8555390790267157 1.9164107800653704e-7 -10.13929929521329 -9.760970983375996 -4.845183660246632 -6.80954528781735 23.361028842633374 -3.8342868500464666 -2.9900397752797736 -11.36789262634255 5.135041493928897 0.00005286046271059859 -1.384194464226343 0.005914008696267399
